<svg width="192" height="192" viewBox="0 0 100 100" xmlns="http://www.w3.org/2000/svg"><rect width="100" height="100" rx="20" fill="#3b82f6"/><path d="M50 15 L15 30 V65 C15 80 50 90 50 90 C50 90 85 80 85 65 V30 Z" fill="white"/><path d="M50 35 C42 35 40 45 40 52.5 C40 60 42 70 50 70 C58 70 60 60 60 52.5 C60 45 58 35 50 35 Z" fill="#60a5fa"/><path d="M50 38 C44 38 43 46 43 52.5 C43 59 44 67 50 67 C56 67 57 59 57 52.5 C57 46 56 38 50 38 Z" fill="#3b82f6"/><circle cx="50" cy="52" r="4" fill="#60a5fa"/></svg>